<?xml version="1.0" encoding="UTF-8"?>
<!DOCTYPE svg PUBLIC "-//W3C//DTD SVG 1.1//EN" "http://www.w3.org/Graphics/SVG/1.1/DTD/svg11.dtd">
<svg version="1.1" xmlns="http://www.w3.org/2000/svg" xmlns:xlink="http://www.w3.org/1999/xlink" x="0" y="0" width="1100" height="628" viewBox="0, 0, 1100, 628">
  <g id="Layer_1">
    <path d="M1016.846,0.551 L1016.846,628.551 L83.154,628.551 L83.154,0.551 L1016.846,0.551 z M283.914,537.511 L260.769,537.511 L260.769,617.956 L283.914,617.956 L283.914,537.511 z M392.776,533.194 C386.694,533.076 380.655,534.226 375.058,536.569 C364.982,540.775 357.164,548.947 353.51,559.094 C351.569,564.35 350.596,569.905 350.636,575.497 C350.631,581.193 351.382,586.866 352.871,592.371 C354.348,597.322 356.939,601.882 360.453,605.713 C364.164,609.633 368.717,612.69 373.781,614.66 C379.208,616.858 385.593,617.956 393.095,617.956 C397.595,617.965 402.086,617.545 406.503,616.701 C409.97,616.061 413.365,615.089 416.639,613.797 L413.367,595.117 C410.525,596.278 407.55,597.095 404.508,597.551 C401.53,598.067 398.513,598.33 395.49,598.335 C387.668,598.336 382.161,596.373 378.969,592.371 C375.856,588.447 374.26,582.796 374.26,575.575 C374.26,568.747 375.936,563.253 379.288,559.094 C382.64,554.934 387.748,552.815 394.612,552.815 C397.539,552.783 400.46,553.099 403.311,553.757 C405.745,554.326 408.143,555.033 410.494,555.876 L415.282,537.668 C411.882,536.252 408.355,535.149 404.747,534.371 C400.812,533.552 396.798,533.157 392.776,533.194 L392.776,533.194 z M319.509,511.921 L296.364,515.609 L296.285,583.262 C296.269,588.037 296.777,592.8 297.801,597.468 C298.639,601.453 300.416,605.19 302.989,608.377 C305.63,611.548 309.069,613.983 312.965,615.44 C317.115,617.089 322.383,617.952 328.688,617.952 C332.926,618.005 337.156,617.584 341.298,616.696 C344.481,615.963 347.602,614.992 350.635,613.792 L347.363,596.055 C344.999,596.877 342.57,597.507 340.1,597.939 C337.573,598.4 335.009,598.637 332.439,598.645 C327.251,598.645 323.739,597.154 322.063,594.328 C320.387,591.503 319.509,587.657 319.509,582.87 L319.509,554.616 L347.363,554.616 L347.363,535.623 L319.509,535.623 L319.509,511.921 z M677.057,507.285 C669.577,507.224 662.145,508.473 655.109,510.974 C648.595,513.294 642.662,516.96 637.711,521.726 C632.681,526.678 628.766,532.614 626.218,539.149 C623.3,546.635 621.864,554.6 621.988,562.616 Q621.949,589.065 635.716,603.427 Q649.443,617.79 675.78,617.79 C683.093,617.9 690.389,617.083 697.488,615.357 C703.714,613.708 708.502,611.903 711.934,609.863 L705.23,590.713 C703.953,591.262 702.437,591.969 700.761,592.675 C698.896,593.444 696.975,594.073 695.014,594.559 C692.551,595.222 690.044,595.72 687.512,596.05 C684.365,596.479 681.192,596.688 678.015,596.678 C672.428,596.678 667.64,595.814 663.729,594.009 C659.988,592.365 656.704,589.862 654.152,586.71 C651.66,583.464 649.868,579.752 648.884,575.801 C647.805,571.327 647.27,566.743 647.288,562.145 C647.288,556.023 648.086,550.843 649.762,546.527 C651.213,542.635 653.469,539.08 656.386,536.088 C659.077,533.467 662.319,531.458 665.884,530.202 C669.403,529.013 673.097,528.403 676.818,528.397 C681.88,528.304 686.931,528.912 691.822,530.202 C695.83,531.252 699.71,532.725 703.394,534.597 L710.417,515.368 Q709.101,514.662 706.347,513.25 C704.081,512.181 701.732,511.289 699.324,510.581 C696.108,509.606 692.828,508.845 689.508,508.305 C685.399,507.582 681.231,507.24 677.057,507.285 L677.057,507.285 z M825.663,533.115 C815.687,533.116 807.865,535.313 802.199,539.708 C796.532,544.104 793.659,550.068 793.659,557.603 C793.569,561 794.138,564.382 795.335,567.57 C796.396,570.259 798.029,572.694 800.124,574.712 C802.322,576.807 804.857,578.531 807.626,579.813 C810.844,581.379 814.148,582.768 817.522,583.973 C821.145,585.196 824.645,586.746 827.977,588.604 C830.292,589.938 831.409,591.586 831.409,593.391 C831.409,595.667 830.531,597.315 828.776,598.1 C827.02,598.963 823.987,599.356 819.757,599.356 C815.645,599.351 811.547,598.877 807.546,597.943 C803.411,597.062 799.354,595.855 795.415,594.333 L791.504,612.855 C794.793,614.067 798.151,615.089 801.56,615.916 C807.505,617.226 813.587,617.832 819.677,617.721 C830.771,617.721 839.31,615.68 845.376,611.599 C851.442,607.597 854.474,601.553 854.474,593.627 C854.529,590.628 854.125,587.639 853.277,584.758 C852.441,582.195 851.053,579.839 849.207,577.851 C846.937,575.511 844.296,573.55 841.385,572.044 C837.318,569.925 833.104,568.089 828.776,566.55 C826.678,565.834 824.626,564.995 822.63,564.038 C821.295,563.439 820.014,562.73 818.799,561.919 C818.02,561.405 817.388,560.702 816.964,559.879 C816.629,559.111 816.466,558.281 816.485,557.446 C816.485,553.443 820.076,551.481 827.339,551.481 C830.908,551.459 834.468,551.828 837.954,552.58 C840.926,553.219 843.858,554.032 846.733,555.013 L850.803,537.275 C847.276,536.025 843.644,535.079 839.949,534.45 C835.241,533.56 830.457,533.113 825.663,533.116 L825.663,533.115 z M456.946,533.129 C451.418,533.074 445.935,534.115 440.825,536.19 C436.009,538.137 431.66,541.051 428.055,544.744 C424.358,548.547 421.504,553.064 419.675,558.008 C417.602,563.534 416.574,569.385 416.642,575.274 C416.563,581.183 417.563,587.058 419.595,592.619 C421.386,597.593 424.183,602.158 427.816,606.04 C431.373,609.773 435.699,612.716 440.505,614.673 C451.101,618.754 462.872,618.754 473.467,614.673 C478.273,612.716 482.599,609.773 486.157,606.04 C489.784,602.182 492.532,597.606 494.217,592.619 C496.125,587.031 497.069,581.169 497.011,575.274 C497.051,569.401 496.079,563.563 494.138,558.008 C492.345,553.082 489.548,548.568 485.917,544.744 C482.356,541.035 478.029,538.119 473.227,536.19 C468.064,534.108 462.527,533.067 456.946,533.129 L456.946,533.129 z M456.866,552.671 C462.134,552.671 466.204,554.712 469.077,558.714 C471.951,562.717 473.387,568.211 473.387,575.274 C473.387,582.259 471.951,587.832 469.077,591.991 C466.204,596.151 462.134,598.192 456.866,598.192 C451.599,598.192 447.449,596.151 444.576,591.991 C441.623,587.91 440.186,582.338 440.186,575.274 C440.186,568.289 441.703,562.717 444.576,558.714 C447.449,554.712 451.599,552.671 456.866,552.671 L456.866,552.671 z M198.988,508.791 Q191.327,508.791 182.468,509.497 C176.981,509.886 171.519,510.567 166.107,511.538 L166.107,614.272 C172.13,615.539 178.238,616.378 184.383,616.784 C190.209,617.177 196.115,617.334 202.021,617.334 C218.303,617.334 230.513,614.587 238.893,608.857 C247.114,603.285 251.264,594.966 251.264,583.821 C251.331,578.642 250.039,573.533 247.513,568.988 C245.039,564.671 240.41,561.14 233.546,558.628 Q245.997,551.329 245.997,538.615 C245.997,533.042 244.799,528.333 242.485,524.488 C240.118,520.617 236.761,517.424 232.748,515.227 C228.141,512.718 223.113,511.043 217.903,510.282 C211.656,509.234 205.326,508.735 198.989,508.791 L198.988,508.791 z M189.73,569.851 L204.974,569.929 C211.918,569.93 217.265,570.95 221.016,573.069 C224.767,575.11 226.603,578.641 226.603,583.507 C226.603,589.001 224.368,592.768 219.899,594.809 C215.429,596.849 209.603,597.87 202.341,597.87 C199.866,597.87 197.552,597.791 195.477,597.713 Q192.364,597.595 189.731,597.242 L189.73,569.851 z M202.819,528.097 Q212.397,528.098 217.425,530.688 C220.697,532.415 222.373,535.397 222.373,539.714 C222.373,543.873 220.777,546.934 217.584,548.818 C214.312,550.701 209.045,551.643 201.542,551.643 L189.73,551.642 L189.73,528.568 C191.646,528.333 193.721,528.255 196.115,528.177 C198.51,528.098 200.744,528.098 202.819,528.098 L202.819,528.097 z M748.247,533.116 C745.534,533.116 742.82,533.273 740.027,533.351 C737.393,533.665 734.919,533.901 732.525,534.293 C730.131,534.686 727.896,535.078 725.901,535.549 C723.906,536.02 722.23,536.491 720.873,536.883 L723.825,555.248 C727.059,554.126 730.403,553.337 733.802,552.894 C737.66,552.33 741.554,552.042 745.454,552.03 C751.36,552.03 755.51,553.208 757.904,555.562 C760.299,557.917 761.496,561.056 761.496,564.902 L761.496,567.02 C759.648,566.489 757.749,566.147 755.829,566 C753.178,565.734 750.514,565.603 747.848,565.608 C743.503,565.608 739.17,566.055 734.919,566.942 C731.023,567.707 727.295,569.142 723.905,571.18 C720.707,573.07 718.066,575.748 716.244,578.95 C714.231,582.607 713.24,586.723 713.371,590.88 C713.371,595.824 714.169,599.905 715.845,603.28 C717.471,606.572 719.948,609.387 723.028,611.442 C726.41,613.599 730.173,615.116 734.121,615.916 C738.843,616.899 743.66,617.373 748.487,617.329 C755.672,617.39 762.851,616.892 769.956,615.837 C775.862,614.896 780.411,614.032 783.763,613.326 L783.762,565.922 C783.811,561.343 783.247,556.779 782.087,552.344 C781.039,548.473 779.038,544.915 776.261,541.984 C773.248,538.905 769.484,536.636 765.327,535.392 C760.778,533.901 755.111,533.116 748.247,533.116 L748.247,533.116 z M752.238,580.912 C753.946,580.909 755.652,581.014 757.346,581.226 C758.766,581.364 760.178,581.573 761.576,581.854 L761.575,599.12 C759.941,599.398 758.287,599.556 756.628,599.591 C754.552,599.67 752.398,599.748 750.083,599.748 C745.853,599.748 742.501,599.12 740.027,597.629 C737.553,596.295 736.356,593.784 736.356,590.252 C736.329,588.646 736.773,587.066 737.633,585.7 C738.5,584.455 739.683,583.454 741.065,582.796 C742.628,581.986 744.335,581.48 746.093,581.305 C748.131,581.049 750.183,580.918 752.238,580.912 L752.238,580.912 z M528.85,535.91 L505.705,535.91 L505.705,616.356 L528.85,616.356 L528.85,535.91 z M576.816,533.43 C570.269,533.437 563.732,533.935 557.263,534.921 C552.121,535.66 547.03,536.708 542.019,538.06 L542.019,615.68 L565.164,615.68 L565.164,553.6 C566.601,553.365 568.276,553.208 570.112,553.051 Q572.866,552.815 575.38,552.815 C580.727,552.815 584.398,554.306 586.393,557.367 C588.389,560.428 589.346,565.608 589.346,572.985 L589.346,615.68 L612.491,615.68 L612.491,570.238 C612.544,565.194 611.981,560.161 610.815,555.248 C609.805,551.003 607.841,547.034 605.069,543.633 C602.154,540.227 598.385,537.63 594.135,536.098 C589.506,534.293 583.76,533.43 576.816,533.43 L576.816,533.43 z M886.558,496.935 L863.413,500.623 L863.413,615.523 L886.558,615.523 L886.558,554.384 C888.16,553.91 889.785,553.517 891.427,553.208 C893.343,552.819 895.297,552.635 897.253,552.658 C902.361,552.658 905.952,554.149 907.868,557.21 C909.783,560.271 910.741,565.451 910.741,572.828 L910.74,615.523 L933.885,615.523 L933.885,570.081 C933.963,565.04 933.427,560.008 932.289,555.091 C931.301,550.869 929.395,546.906 926.703,543.476 C923.893,540.131 920.269,537.539 916.168,535.941 C911.778,534.136 906.272,533.273 899.647,533.273 C897.262,533.283 894.883,533.519 892.544,533.979 C890.521,534.362 888.523,534.86 886.559,535.47 L886.558,496.935 z M272.262,500.781 L272.262,500.781 C268.671,500.743 265.197,502.031 262.525,504.391 C259.732,506.824 258.375,510.12 258.375,514.28 C258.375,518.518 259.812,521.736 262.525,524.169 C268.094,528.982 276.43,528.982 281.999,524.169 C284.792,521.736 286.149,518.44 286.149,514.28 C286.149,510.12 284.792,506.824 281.999,504.391 C279.34,502.011 275.857,500.72 272.262,500.781 z M517.118,499.18 C513.528,499.142 510.053,500.43 507.382,502.79 C504.588,505.223 503.232,508.52 503.231,512.679 C503.232,516.918 504.668,520.135 507.382,522.568 C512.95,527.382 521.287,527.382 526.855,522.568 C529.649,520.135 531.005,516.839 531.005,512.679 C531.005,508.52 529.649,505.223 526.855,502.79 C524.196,500.411 520.713,499.119 517.118,499.18 L517.118,499.18 z M933.893,19.26 L716.251,19.26 C790.875,70.745 839.638,156.057 839.638,252.518 C839.638,348.979 790.874,434.212 716.252,485.697 L933.893,485.697 L933.893,19.26 z M381.205,19.26 L163.32,19.26 L163.32,485.618 L381.199,485.618 C306.578,434.129 257.814,348.896 257.814,252.44 C257.814,155.978 306.578,70.745 381.205,19.26 z M550,19.26 L550,19.26 C419.131,19.26 313.041,123.587 313.041,252.281 C313.041,380.975 419.131,485.302 550,485.302 C680.869,485.302 786.959,380.975 786.959,252.281 C786.959,123.587 680.869,19.26 550,19.26 z M541.828,107.751 L552.711,149.426 L557.014,148.34 C573.555,144.167 589.995,146.159 602.935,152.772 L603.377,153.007 L603.389,153.028 L603.599,153.123 L604.485,153.594 L604.767,153.766 L604.915,153.845 L605.189,154.01 L605.316,154.098 L605.579,154.243 L605.706,154.331 L605.971,154.476 L606.097,154.564 L606.361,154.71 L606.477,154.778 L606.741,154.923 L606.858,154.991 L607.101,155.148 L607.218,155.217 L607.461,155.374 L607.578,155.442 L607.81,155.578 L607.927,155.646 L608.159,155.782 L608.275,155.85 L608.508,155.986 L608.624,156.054 L608.856,156.19 L608.973,156.258 L609.185,156.405 L609.302,156.473 L609.514,156.62 L609.631,156.688 L609.843,156.835 L609.939,156.913 L610.151,157.06 L610.247,157.139 L610.458,157.285 L610.554,157.364 L610.756,157.49 L610.851,157.569 L611.032,157.706 L611.128,157.785 L611.308,157.922 L611.404,158 L611.616,158.147 L611.88,158.343 C612.073,158.501 612.285,158.648 612.476,158.805 L612.486,158.825 C619.19,164.185 624.096,171.405 626.566,179.545 L626.576,179.565 L626.643,179.688 C626.713,179.91 626.781,180.133 626.851,180.355 L626.873,180.395 L626.993,180.615 C627.086,180.93 627.19,181.263 627.262,181.587 C627.366,181.921 627.438,182.245 627.51,182.569 L627.609,182.749 L627.631,182.79 L627.631,182.835 C627.7,183.058 627.749,183.289 627.797,183.524 L627.864,183.646 L627.886,183.686 L627.897,183.707 C629.721,192.009 628.96,200.658 625.714,208.528 L625.692,208.539 C625.586,208.781 625.5,209.01 625.393,209.246 L625.246,209.559 L625.139,209.795 L624.652,210.831 L624.534,211.048 L624.486,211.152 L624.367,211.369 L624.319,211.473 L624.201,211.69 L624.152,211.794 L624.034,212.011 L623.964,212.126 L623.846,212.343 L623.777,212.458 L623.639,212.686 L623.569,212.801 L623.432,213.029 L623.363,213.144 L623.236,213.392 L623.166,213.507 L623.039,213.756 L622.97,213.87 L622.843,214.119 L622.774,214.234 L622.627,214.493 L622.557,214.608 L622.41,214.868 L622.34,214.982 L622.193,215.242 L622.103,215.367 L621.956,215.627 L621.866,215.752 L621.698,216.022 L621.608,216.146 L621.44,216.416 L621.351,216.541 L621.182,216.811 L621.093,216.936 L620.924,217.206 L620.835,217.331 L620.667,217.601 L620.538,217.798 L620.517,217.809 L620.24,218.215 C618.497,220.745 616.56,223.138 614.444,225.375 C621.99,226.401 629.305,228.674 636.08,232.098 C636.239,232.195 636.406,232.262 636.565,232.359 L636.575,232.379 L636.796,232.495 L637.123,232.659 L637.282,232.757 L637.609,232.921 L637.768,233.018 L638.075,233.192 L638.234,233.289 L638.541,233.464 L638.689,233.542 L638.995,233.716 L639.143,233.795 L639.449,233.969 L640.04,234.283 L640.314,234.449 L640.462,234.527 L640.736,234.693 L640.863,234.781 L641.138,234.946 L641.265,235.034 L641.539,235.2 L641.666,235.288 L641.941,235.453 L642.068,235.541 L642.322,235.717 L642.449,235.805 L642.689,235.962 L642.816,236.05 L643.055,236.207 L643.182,236.295 L643.421,236.452 L643.548,236.539 L643.689,236.75 L643.806,236.818 L644.045,236.975 L644.162,237.043 L644.385,237.21 L644.501,237.278 L644.724,237.444 L644.82,237.523 L645.032,237.67 L645.128,237.748 L645.34,237.895 L645.436,237.973 L645.658,238.14 L645.966,238.365 C646.19,238.532 646.424,238.719 646.647,238.886 L646.658,238.906 C654.189,244.932 659.703,253.045 662.485,262.191 L662.507,262.231 L662.574,262.353 C662.666,262.616 662.725,262.87 662.805,263.112 L662.827,263.152 L662.959,263.393 C662.978,263.735 663.016,264.076 663.074,264.414 C663.189,264.768 663.262,265.143 663.357,265.507 L663.4,265.585 L663.545,265.851 L663.545,265.902 C663.606,266.156 663.665,266.408 663.725,266.662 L663.802,266.804 L663.813,266.825 C665.857,276.164 664.999,285.892 661.35,294.745 L661.34,294.775 C661.241,295.034 661.118,295.283 661.001,295.551 L660.841,295.892 L660.725,296.16 L660.676,296.264 L660.57,296.499 L660.501,296.614 L660.394,296.849 L660.324,296.964 L660.197,297.213 L660.128,297.327 L660.001,297.576 L659.932,297.691 L659.805,297.939 L659.735,298.054 L659.608,298.303 L659.539,298.417 L659.412,298.666 L659.343,298.781 L659.216,299.03 L659.157,299.164 L659.01,299.423 L658.951,299.557 L658.804,299.816 L658.724,299.961 L658.576,300.22 L658.497,300.365 L658.349,300.625 L658.269,300.77 L658.101,301.04 L658.021,301.185 L657.852,301.455 L657.294,302.472 L657.117,302.773 L657.037,302.918 L656.86,303.22 L656.78,303.365 L656.603,303.666 L656.504,303.823 L656.327,304.125 L655.733,305.066 L655.583,305.275 L655.563,305.286 L655.255,305.734 C646.134,319.135 631.06,329.882 612.42,334.596 C609.878,335.243 606.203,336.176 601.932,337.274 L612.826,378.966 L587.619,385.344 L576.761,343.815 L556.587,348.901 L567.441,390.431 L542.234,396.81 L531.247,355.375 L479.299,368.503 L478.22,337.047 L496.582,332.401 C501.209,331.226 503.994,326.589 502.808,322.037 L473.719,210.734 L473.713,210.709 C471.925,203.889 464.853,199.785 457.917,201.543 L436.961,206.836 L430.04,180.387 L482.05,167.226 L471.203,125.716 L496.423,119.359 L507.277,160.736 L527.455,155.618 L516.608,114.108 L541.828,107.751 z M581.849,254.484 C580.529,254.513 579.206,254.49 577.888,254.569 C574.44,254.775 571.016,255.316 567.671,256.158 C560.713,257.925 539.632,263.13 534.524,264.435 L548.838,319.204 C553.954,317.92 574.979,312.513 581.938,310.746 C592.972,307.961 602.056,302.143 607.688,295.07 L607.878,294.839 L607.979,294.734 L608.158,294.485 L608.279,294.318 L608.877,293.486 L608.976,293.329 L609.036,293.246 L609.135,293.089 L609.174,293.017 L609.273,292.86 L609.312,292.788 L609.411,292.631 L609.45,292.559 L609.56,292.423 L609.599,292.351 L609.71,292.215 L609.749,292.143 L609.838,292.018 L609.877,291.946 L609.967,291.821 L610.006,291.749 L610.095,291.624 L610.134,291.552 L610.224,291.427 L610.263,291.355 L610.352,291.23 L610.391,291.158 L610.481,291.033 L610.52,290.961 L610.609,290.836 L610.648,290.764 L610.738,290.639 L610.777,290.567 L610.866,290.442 L610.905,290.37 L610.975,290.255 L611.014,290.183 L611.083,290.068 L611.122,289.996 L611.202,289.851 L611.311,289.664 L611.536,289.26 C613.845,284.829 614.56,279.761 613.565,274.879 L613.52,274.797 C613.495,274.659 613.46,274.547 613.436,274.405 L613.424,274.384 L613.358,274.264 L613.351,274.279 C613.385,274.003 613.368,273.78 613.265,273.735 C613.207,273.532 613.159,273.35 613.112,273.168 L613.046,273.048 L613.034,273.027 C612.99,272.897 612.955,272.785 612.91,272.654 L612.865,272.575 C611.342,267.83 608.234,263.728 604.045,260.934 C603.921,260.846 603.773,260.769 603.646,260.681 L603.476,260.562 L603.35,260.475 L603.276,260.436 L603.16,260.368 L603.086,260.329 L602.959,260.241 L602.886,260.203 L602.759,260.115 L602.686,260.077 L602.559,259.989 L602.485,259.95 L602.358,259.862 L602.285,259.824 L602.158,259.736 L602.085,259.698 L601.937,259.619 L601.864,259.581 L601.716,259.502 L601.642,259.464 L601.495,259.385 L601.421,259.347 L601.274,259.268 L601.2,259.23 L601.053,259.151 L600.979,259.113 L600.832,259.034 L600.758,258.996 L600.61,258.917 L600.537,258.879 L600.389,258.801 L600.316,258.762 L600.168,258.684 L600.095,258.645 L599.916,258.559 L599.843,258.52 L599.664,258.434 L599.591,258.396 L599.412,258.309 L599.339,258.271 L599.16,258.184 L599.066,258.157 L598.887,258.071 L598.793,258.043 L598.614,257.957 L598.52,257.929 L598.321,257.851 L597.911,257.679 C592.783,255.667 587.387,254.534 581.849,254.485 L581.849,254.484 z M553.066,180.657 L551.387,180.686 C546.829,180.978 546.696,181.129 542.742,181.956 C536.876,183.455 519.086,187.849 514.784,188.935 L528.05,239.368 C532.349,238.282 550.095,233.707 555.973,232.227 C565.298,229.879 572.899,224.717 577.536,218.326 L577.685,218.117 L577.765,218.023 L577.875,217.887 L577.914,217.815 L578.024,217.679 L578.063,217.607 L578.174,217.471 L578.213,217.399 L578.323,217.263 L578.362,217.191 L578.451,217.066 L578.49,216.994 L578.58,216.869 L578.619,216.797 L578.708,216.672 L578.747,216.6 L578.837,216.475 L578.876,216.403 L578.965,216.278 L579.004,216.206 L579.094,216.081 L579.133,216.009 L579.222,215.884 L579.262,215.812 L579.352,215.687 L579.391,215.615 L579.459,215.5 L579.499,215.428 L579.568,215.314 L579.607,215.241 L579.676,215.127 L579.715,215.055 L579.785,214.94 L579.804,214.878 L579.874,214.763 L579.893,214.701 L579.962,214.587 L579.981,214.525 L580.051,214.41 L580.07,214.348 L580.139,214.234 L580.158,214.172 L580.228,214.057 L580.247,213.995 L580.296,213.892 L580.315,213.83 L580.384,213.715 L580.472,213.539 L580.637,213.167 C582.515,209.039 583.018,204.434 582.074,200.008 L582.041,199.947 C581.997,199.83 581.965,199.707 581.947,199.583 L581.936,199.562 L581.87,199.442 C581.855,199.25 581.821,199.06 581.769,198.874 L581.618,198.358 L581.552,198.238 L581.541,198.218 C581.507,198.107 581.461,197.976 581.427,197.864 L581.394,197.803 C580.058,193.473 577.359,189.671 573.686,186.945 L573.347,186.709 L573.187,186.611 L573.071,186.543 L573.028,186.514 L572.932,186.436 L572.89,186.407 L572.774,186.338 L572.731,186.309 L572.615,186.241 L572.573,186.212 L572.456,186.144 L572.414,186.115 L572.297,186.046 L572.244,185.997 L572.127,185.929 L572.054,185.89 L571.937,185.822 L571.864,185.783 L571.747,185.715 L571.674,185.677 L571.557,185.608 L571.484,185.57 L571.367,185.502 L571.294,185.463 L571.167,185.375 L571.094,185.337 L570.967,185.249 L570.893,185.211 L570.766,185.123 L570.693,185.084 L570.545,185.006 L570.472,184.967 L570.324,184.889 L570.251,184.85 L570.103,184.772 L570.03,184.733 L569.882,184.655 L569.809,184.616 L569.661,184.538 L569.588,184.499 L569.44,184.421 L569.367,184.383 L569.219,184.304 L569.145,184.266 L568.998,184.187 L568.924,184.149 L568.777,184.07 L568.671,184.022 L568.432,183.917 C564.103,181.995 559.512,180.833 554.746,180.681 L553.066,180.657 z" fill="#FBFBFB"/>
    <path d="M0,-0 L97.694,-0 L97.694,628.275 L0,628.275 L0,-0 z" fill="#FBFBFB"/>
    <path d="M1004.087,0 L1100,0 L1100,629.102 L1004.087,629.102 L1004.087,0 z" fill="#FBFBFB"/>
  </g>
</svg>
